<mxfile host="app.diagrams.net" modified="2023-04-04T07:14:05.820Z" agent="5.0 (Windows NT 10.0; Win64; x64) AppleWebKit/537.36 (KHTML, like Gecko) Chrome/101.0.0.0 Safari/537.36" etag="Lxr4laz6d_1GEDZh_M9m" version="20.8.18" type="github">
  <diagram name="第 1 页" id="3WWHxouxkc4MKcHN87Tv">
    <mxGraphModel dx="1354" dy="1734" grid="1" gridSize="10" guides="1" tooltips="1" connect="1" arrows="1" fold="1" page="1" pageScale="1" pageWidth="827" pageHeight="1169" math="0" shadow="0">
      <root>
        <mxCell id="0" />
        <mxCell id="1" parent="0" />
        <mxCell id="shtWNqUfEJ28_6Fla2rM-20" value="" style="edgeStyle=orthogonalEdgeStyle;rounded=0;orthogonalLoop=1;jettySize=auto;html=1;" edge="1" parent="1" source="shtWNqUfEJ28_6Fla2rM-2" target="shtWNqUfEJ28_6Fla2rM-19">
          <mxGeometry relative="1" as="geometry" />
        </mxCell>
        <mxCell id="shtWNqUfEJ28_6Fla2rM-2" value="开始" style="strokeWidth=2;html=1;shape=mxgraph.flowchart.start_1;whiteSpace=wrap;" vertex="1" parent="1">
          <mxGeometry x="20" y="-1050" width="100" height="60" as="geometry" />
        </mxCell>
        <mxCell id="shtWNqUfEJ28_6Fla2rM-3" value="" style="edgeStyle=orthogonalEdgeStyle;rounded=0;orthogonalLoop=1;jettySize=auto;html=1;" edge="1" parent="1" source="shtWNqUfEJ28_6Fla2rM-4" target="shtWNqUfEJ28_6Fla2rM-6">
          <mxGeometry relative="1" as="geometry" />
        </mxCell>
        <mxCell id="shtWNqUfEJ28_6Fla2rM-4" value="参数校验" style="rounded=1;whiteSpace=wrap;html=1;absoluteArcSize=1;arcSize=14;strokeWidth=2;" vertex="1" parent="1">
          <mxGeometry x="340" y="-1050" width="100" height="60" as="geometry" />
        </mxCell>
        <mxCell id="shtWNqUfEJ28_6Fla2rM-5" value="" style="edgeStyle=orthogonalEdgeStyle;rounded=0;orthogonalLoop=1;jettySize=auto;html=1;" edge="1" parent="1" source="shtWNqUfEJ28_6Fla2rM-6" target="shtWNqUfEJ28_6Fla2rM-8">
          <mxGeometry relative="1" as="geometry" />
        </mxCell>
        <mxCell id="shtWNqUfEJ28_6Fla2rM-6" value="表单名称重复性校验" style="rounded=1;whiteSpace=wrap;html=1;absoluteArcSize=1;arcSize=14;strokeWidth=2;" vertex="1" parent="1">
          <mxGeometry x="500" y="-1050" width="100" height="60" as="geometry" />
        </mxCell>
        <mxCell id="shtWNqUfEJ28_6Fla2rM-15" value="" style="edgeStyle=orthogonalEdgeStyle;rounded=0;orthogonalLoop=1;jettySize=auto;html=1;" edge="1" parent="1" source="shtWNqUfEJ28_6Fla2rM-8" target="shtWNqUfEJ28_6Fla2rM-12">
          <mxGeometry relative="1" as="geometry" />
        </mxCell>
        <mxCell id="shtWNqUfEJ28_6Fla2rM-8" value="校验数据项参数" style="rounded=1;whiteSpace=wrap;html=1;absoluteArcSize=1;arcSize=14;strokeWidth=2;" vertex="1" parent="1">
          <mxGeometry x="660" y="-1050" width="100" height="60" as="geometry" />
        </mxCell>
        <mxCell id="shtWNqUfEJ28_6Fla2rM-11" value="结束" style="strokeWidth=2;html=1;shape=mxgraph.flowchart.terminator;whiteSpace=wrap;" vertex="1" parent="1">
          <mxGeometry x="20" y="-890" width="100" height="60" as="geometry" />
        </mxCell>
        <mxCell id="shtWNqUfEJ28_6Fla2rM-16" value="" style="edgeStyle=orthogonalEdgeStyle;rounded=0;orthogonalLoop=1;jettySize=auto;html=1;" edge="1" parent="1" source="shtWNqUfEJ28_6Fla2rM-12" target="shtWNqUfEJ28_6Fla2rM-13">
          <mxGeometry relative="1" as="geometry" />
        </mxCell>
        <mxCell id="shtWNqUfEJ28_6Fla2rM-12" value="删除原有数据项" style="rounded=1;whiteSpace=wrap;html=1;absoluteArcSize=1;arcSize=14;strokeWidth=2;" vertex="1" parent="1">
          <mxGeometry x="660" y="-890" width="100" height="60" as="geometry" />
        </mxCell>
        <mxCell id="shtWNqUfEJ28_6Fla2rM-17" value="" style="edgeStyle=orthogonalEdgeStyle;rounded=0;orthogonalLoop=1;jettySize=auto;html=1;" edge="1" parent="1" source="shtWNqUfEJ28_6Fla2rM-13" target="shtWNqUfEJ28_6Fla2rM-14">
          <mxGeometry relative="1" as="geometry" />
        </mxCell>
        <mxCell id="shtWNqUfEJ28_6Fla2rM-13" value="批量新增数据项" style="rounded=1;whiteSpace=wrap;html=1;absoluteArcSize=1;arcSize=14;strokeWidth=2;" vertex="1" parent="1">
          <mxGeometry x="430" y="-890" width="100" height="60" as="geometry" />
        </mxCell>
        <mxCell id="shtWNqUfEJ28_6Fla2rM-18" value="" style="edgeStyle=orthogonalEdgeStyle;rounded=0;orthogonalLoop=1;jettySize=auto;html=1;" edge="1" parent="1" source="shtWNqUfEJ28_6Fla2rM-14" target="shtWNqUfEJ28_6Fla2rM-11">
          <mxGeometry relative="1" as="geometry" />
        </mxCell>
        <mxCell id="shtWNqUfEJ28_6Fla2rM-14" value="修改模板基本信息" style="rounded=1;whiteSpace=wrap;html=1;absoluteArcSize=1;arcSize=14;strokeWidth=2;" vertex="1" parent="1">
          <mxGeometry x="210" y="-890" width="100" height="60" as="geometry" />
        </mxCell>
        <mxCell id="shtWNqUfEJ28_6Fla2rM-21" value="" style="edgeStyle=orthogonalEdgeStyle;rounded=0;orthogonalLoop=1;jettySize=auto;html=1;" edge="1" parent="1" source="shtWNqUfEJ28_6Fla2rM-19" target="shtWNqUfEJ28_6Fla2rM-4">
          <mxGeometry relative="1" as="geometry" />
        </mxCell>
        <mxCell id="shtWNqUfEJ28_6Fla2rM-19" value="模板状态校验&lt;br&gt;发布状态不能修改" style="rounded=1;whiteSpace=wrap;html=1;absoluteArcSize=1;arcSize=14;strokeWidth=2;" vertex="1" parent="1">
          <mxGeometry x="170" y="-1050" width="100" height="60" as="geometry" />
        </mxCell>
      </root>
    </mxGraphModel>
  </diagram>
</mxfile>
